# xmcd
#
# Track frame offsets:
#	150
#	26404
#	51628
#	78447
#	101081
#	123863
#	149911
#	173024
#	194143
#	224391
#	251586
#	273676
#
# Disc length: 3879 seconds
#
# Revision: 0
# Processed by: cddbd v1.5.2PL0 Copyright (c) Steve Scherf et al.
# Submitted via: SynApp - FreeCDDB Version: 2.5
#
DISCID=bf0f250c
DTITLE=BMCM001961 - African Tribal Orchestra - African Dream Lounge II
DYEAR=2008
DGENRE=National Folk
TTITLE0=BMCM001961 - 01 - Welcome to Africa
TTITLE1=BMCM001961 - 02 - Morning Over Serengeti
TTITLE2=BMCM001961 - 03 - Native Energy
TTITLE3=BMCM001961 - 04 - Dreams of a bright future
TTITLE4=BMCM001961 - 05 - Africa
TTITLE5=BMCM001961 - 06 - Sundown in madagaskar
TTITLE6=BMCM001961 - 07 - Welwitschi
TTITLE7=BMCM001961 - 08 - Culture and Native
TTITLE8=BMCM001961 - 09 - Dances of Angola
TTITLE9=BMCM001961 - 10 - Forget your fears
TTITLE10=BMCM001961 - 11 - The desert of Namibia
TTITLE11=BMCM001961 - 12 - A Song of Ghana
EXTD=
EXTT0=
EXTT1=
EXTT2=
EXTT3=
EXTT4=
EXTT5=
EXTT6=
EXTT7=
EXTT8=
EXTT9=
EXTT10=
EXTT11=
PLAYORDER=
